<svg width="227" height="40" viewBox="0 0 227 40" fill="none" xmlns="http://www.w3.org/2000/svg">
<path fill-rule="evenodd" clip-rule="evenodd" d="M0 2C0 0.895431 0.895431 0 2 0H225C226.105 0 227 0.895431 227 2V38C227 39.1046 226.105 40 225 40H2C0.895432 40 0 39.1046 0 38V2Z" fill="#3B3B3B"/>
<path d="M206.418 16L205 17.3458L212 24L219 17.3458L217.583 16L212 21.3042L206.418 16Z" fill="white"/>
<path fill-rule="evenodd" clip-rule="evenodd" d="M24.3374 12.1659C24.3161 12.1635 24.2948 12.1608 24.2735 12.1581C24.2078 12.1498 24.142 12.1415 24.0752 12.1415C24.0614 12.1415 24.0477 12.1433 24.0341 12.1452C24.0222 12.1468 24.0105 12.1484 23.9986 12.1488C23.9772 12.1484 23.956 12.1468 23.9347 12.1452C23.9101 12.1433 23.8856 12.1415 23.8608 12.1415C19.527 12.1415 16.0011 15.6677 16.0011 20.0011C16.0011 24.3352 19.527 27.8608 23.8608 27.8608C23.8857 27.8608 23.9104 27.859 23.935 27.8572C23.9561 27.8557 23.9772 27.8541 23.9983 27.8538C24.0103 27.8542 24.0222 27.8557 24.034 27.8572C24.0477 27.859 24.0614 27.8608 24.0752 27.8608C24.1455 27.8608 24.2147 27.8519 24.2838 27.8431L24.3151 27.8391L24.3374 27.8364C28.4491 27.5882 31.7204 24.1743 31.7204 20.0011C31.7204 15.8279 28.4491 12.4143 24.3374 12.1659ZM21.5079 13.5439C20.7119 14.4629 20.0651 15.7825 19.71 17.3409C18.6058 17.2211 17.9394 17.0815 17.6707 17.017C18.4511 15.4056 19.8269 14.1603 21.5079 13.5439ZM17.2988 17.9324C17.0925 18.5853 16.9802 19.2803 16.9802 20.0011C16.9814 20.848 17.14 21.6872 17.4479 22.4761C17.7625 22.4 18.4637 22.2543 19.602 22.1308C19.4813 21.4546 19.4103 20.743 19.4103 20.0011C19.4109 19.4344 19.4509 18.8685 19.5301 18.3074C18.2032 18.16 17.4863 17.9829 17.2988 17.9324ZM17.8757 23.3833C18.2316 23.3075 18.8693 23.1927 19.8119 23.0942C20.1827 24.4663 20.786 25.6258 21.5085 26.459C19.9713 25.8965 18.6837 24.8066 17.8751 23.3833H17.8757ZM20.7077 23.0103C21.216 24.9791 22.4561 26.4396 23.2983 26.7921V22.9072C22.4561 22.9173 21.4386 22.9561 20.7077 23.0103ZM23.2983 21.9287C22.4561 21.9394 21.31 21.9826 20.5286 22.0432C20.4211 21.3948 20.3905 20.7088 20.3905 20.0011C20.3905 19.451 20.4011 18.9154 20.4677 18.398C21.2612 18.4609 22.4561 18.5061 23.2983 18.5173V21.9284V21.9287ZM20.6024 17.4279C21.3552 17.4855 22.4561 17.5281 23.2983 17.5385V17.5383V13.2104C22.4561 13.5888 21.0726 15.2399 20.6024 17.4279ZM30.0255 16.9631C29.872 17.0103 29.25 17.1837 28.0197 17.3294C27.742 15.8529 27.241 14.5948 26.5875 13.6865C28.0856 14.3357 29.3039 15.5046 30.0255 16.9628V16.9631ZM27.1121 17.4265C26.651 15.2112 25.2632 13.5453 24.4211 13.1958V17.5388C25.2632 17.5284 26.3714 17.4855 27.1121 17.4265ZM24.4211 18.5173C25.2632 18.5064 26.4435 18.4601 27.2272 18.395C27.2918 18.9131 27.3081 19.4495 27.3081 20.0011C27.3081 20.7096 27.2828 21.3968 27.1784 22.046C26.4067 21.9837 25.2632 21.9388 24.4211 21.9287V18.5173ZM24.4211 22.9072V26.8067V26.807C25.2632 26.4808 26.51 25.0077 27.0097 23.0125C26.2883 22.9569 25.2632 22.9173 24.4211 22.9072ZM26.5875 26.3164C27.1764 25.4978 27.6455 24.3992 27.9349 23.1088C28.9027 23.2202 29.5124 23.3499 29.8198 23.4274C29.0797 24.7118 27.9466 25.7245 26.5875 26.3164ZM28.1679 18.2967C28.3156 19.5757 28.2957 20.8685 28.1089 22.1423L28.1092 22.142C29.3039 22.2824 29.9834 22.4514 30.2538 22.5303C30.5653 21.7465 30.7422 20.8946 30.7422 20.0011C30.7418 19.118 30.5702 18.2433 30.2369 17.4254L30.395 17.8717C30.3506 17.8874 29.6808 18.1151 28.1679 18.2967Z" fill="white"/>
<path d="M50.2915 20.3818V24H49.0728V14.7578H52.4814C53.4928 14.7578 54.2842 15.016 54.8555 15.5322C55.431 16.0485 55.7188 16.7319 55.7188 17.5825C55.7188 18.4797 55.4373 19.1715 54.8745 19.6582C54.3159 20.1406 53.514 20.3818 52.4688 20.3818H50.2915ZM50.2915 19.3853H52.4814C53.1331 19.3853 53.6325 19.2329 53.9795 18.9282C54.3265 18.6193 54.5 18.175 54.5 17.5952C54.5 17.0451 54.3265 16.605 53.9795 16.2749C53.6325 15.9448 53.1564 15.7734 52.5513 15.7607H50.2915V19.3853ZM59.4385 22.2798L61.0381 17.1318H62.2949L59.5337 25.0601C59.1063 26.2026 58.4271 26.7739 57.4961 26.7739L57.2739 26.7549L56.8359 26.6724V25.7202L57.1533 25.7456C57.5511 25.7456 57.86 25.6652 58.0801 25.5044C58.3044 25.3436 58.4884 25.0495 58.6323 24.6221L58.8926 23.9238L56.4424 17.1318H57.7246L59.4385 22.2798ZM66.0146 23.1685C66.4336 23.1685 66.7996 23.0415 67.1128 22.7876C67.4259 22.5337 67.5994 22.2163 67.6333 21.8354H68.7441C68.723 22.229 68.5876 22.6035 68.3379 22.959C68.0882 23.3145 67.7539 23.598 67.335 23.8096C66.9202 24.0212 66.4801 24.127 66.0146 24.127C65.0794 24.127 64.3346 23.8159 63.7803 23.1938C63.2301 22.5675 62.9551 21.7127 62.9551 20.6294V20.4326C62.9551 19.764 63.0778 19.1694 63.3232 18.6489C63.5687 18.1284 63.9199 17.7243 64.377 17.4365C64.8382 17.1488 65.382 17.0049 66.0083 17.0049C66.7785 17.0049 67.4175 17.2355 67.9253 17.6968C68.4373 18.158 68.7103 18.7568 68.7441 19.4932H67.6333C67.5994 19.0488 67.4302 18.6849 67.1255 18.4014C66.825 18.1136 66.4526 17.9697 66.0083 17.9697C65.4116 17.9697 64.9482 18.1855 64.6182 18.6172C64.2923 19.0446 64.1294 19.6646 64.1294 20.4771V20.6992C64.1294 21.4906 64.2923 22.0999 64.6182 22.5273C64.944 22.9548 65.4095 23.1685 66.0146 23.1685ZM72.8193 23.1685C73.2383 23.1685 73.6043 23.0415 73.9175 22.7876C74.2306 22.5337 74.4041 22.2163 74.438 21.8354H75.5488C75.5277 22.229 75.3923 22.6035 75.1426 22.959C74.8929 23.3145 74.5586 23.598 74.1396 23.8096C73.7249 24.0212 73.2848 24.127 72.8193 24.127C71.8841 24.127 71.1393 23.8159 70.585 23.1938C70.0348 22.5675 69.7598 21.7127 69.7598 20.6294V20.4326C69.7598 19.764 69.8825 19.1694 70.1279 18.6489C70.3734 18.1284 70.7246 17.7243 71.1816 17.4365C71.6429 17.1488 72.1867 17.0049 72.813 17.0049C73.5832 17.0049 74.2222 17.2355 74.73 17.6968C75.242 18.158 75.515 18.7568 75.5488 19.4932H74.438C74.4041 19.0488 74.2349 18.6849 73.9302 18.4014C73.6297 18.1136 73.2573 17.9697 72.813 17.9697C72.2163 17.9697 71.7529 18.1855 71.4229 18.6172C71.097 19.0446 70.9341 19.6646 70.9341 20.4771V20.6992C70.9341 21.4906 71.097 22.0999 71.4229 22.5273C71.7487 22.9548 72.2142 23.1685 72.8193 23.1685ZM79.0083 21.0737H78.1514V24H76.9707V17.1318H78.1514V20.0391H78.9194L81.23 17.1318H82.6519L79.9351 20.4326L82.8804 24H81.3887L79.0083 21.0737ZM88.333 17.1318H89.5073V24H88.333V18.9917L85.1655 24H83.9912V17.1318H85.1655V22.1465L88.333 17.1318ZM95.8359 17.1318H97.0103V24H95.8359V18.9917L92.6685 24H91.4941V17.1318H92.6685V22.1465L95.8359 17.1318ZM96.1533 14.6309C96.1533 15.1429 95.9777 15.5555 95.6265 15.8687C95.2795 16.1776 94.8224 16.332 94.2554 16.332C93.6883 16.332 93.2292 16.1755 92.8779 15.8623C92.5267 15.5492 92.3511 15.1387 92.3511 14.6309H93.3096C93.3096 14.9271 93.39 15.1598 93.5508 15.3291C93.7116 15.4941 93.9465 15.5767 94.2554 15.5767C94.5516 15.5767 94.7822 15.4941 94.9473 15.3291C95.1165 15.1641 95.2012 14.9313 95.2012 14.6309H96.1533Z" fill="white"/>
</svg>
