<svg width="96" height="60" viewBox="0 0 96 60" fill="none" xmlns="http://www.w3.org/2000/svg">
<path fill-rule="evenodd" clip-rule="evenodd" d="M19.5 39H4.5C3.65991 39 3 39.66 3 40.5V55.5C3 56.34 3.65991 57 4.5 57H11.3999H15H19.5C20.3401 57 21 56.34 21 55.5V40.5C21 39.66 20.3401 39 19.5 39ZM12.052 50.2609H9.80005V47.9652H12.052V45.9565C12.052 44.3209 13.2905 42.9435 14.8667 42.8H17.4001V45.0957H15.1482C14.6697 45.0957 14.3037 45.4688 14.3037 45.9565V47.9652H17.1187V50.2609H14.3037V56.2001H12.052V50.2609ZM14.9287 56.2001H19.3215C19.8193 56.2001 20.2 55.8193 20.2002 55.3215V40.6786C20.2002 40.1808 19.8193 39.8 19.3215 39.8H4.67871C4.18066 39.8 3.80005 40.1808 3.80005 40.6786V55.3215C3.80005 55.8193 4.18066 56.2001 4.67871 56.2001H11.4143V50.9286H9.07153V47.4143H11.4143V45.9501C11.4143 43.9879 12.9373 42.3186 14.8994 42.1429H18.1501V45.6572H15.2214C15.0457 45.6572 14.9287 45.7743 14.9287 45.9501V47.4143H17.8572V50.9286H14.9287V56.2001Z" fill="white"/>
<mask id="mask0" mask-type="alpha" maskUnits="userSpaceOnUse" x="3" y="39" width="18" height="18">
<path fill-rule="evenodd" clip-rule="evenodd" d="M19.5 39H4.5C3.65991 39 3 39.66 3 40.5V55.5C3 56.34 3.65991 57 4.5 57H11.3999H15H19.5C20.3401 57 21 56.34 21 55.5V40.5C21 39.66 20.3401 39 19.5 39ZM12.052 50.2609H9.80005V47.9652H12.052V45.9565C12.052 44.3209 13.2905 42.9435 14.8667 42.8H17.4001V45.0957H15.1482C14.6697 45.0957 14.3037 45.4688 14.3037 45.9565V47.9652H17.1187V50.2609H14.3037V56.2001H12.052V50.2609ZM14.9287 56.2001H19.3215C19.8193 56.2001 20.2 55.8193 20.2002 55.3215V40.6786C20.2002 40.1808 19.8193 39.8 19.3215 39.8H4.67871C4.18066 39.8 3.80005 40.1808 3.80005 40.6786V55.3215C3.80005 55.8193 4.18066 56.2001 4.67871 56.2001H11.4143V50.9286H9.07153V47.4143H11.4143V45.9501C11.4143 43.9879 12.9373 42.3186 14.8994 42.1429H18.1501V45.6572H15.2214C15.0457 45.6572 14.9287 45.7743 14.9287 45.9501V47.4143H17.8572V50.9286H14.9287V56.2001Z" fill="white"/>
</mask>
<g mask="url(#mask0)">
</g>
<path fill-rule="evenodd" clip-rule="evenodd" d="M88.0325 39H79.9673C77.2283 39 75 41.2284 75 43.9674V52.0326C75 54.7717 77.2283 57 79.9673 57H88.0325C90.7717 57 93 54.7716 93 52.0326V43.9674C93 41.2284 90.7717 39 88.0325 39ZM92 52.3579C92 54.3662 90.3662 56 88.3579 56H79.6421C77.6338 56.0001 76 54.3662 76 52.3579V43.6421C76 41.6339 77.6338 40 79.6421 40H88.3577C90.366 40 92 41.6339 92 43.6421V52.3579ZM79.3618 48.0002C79.3618 45.4427 81.4424 43.3621 84 43.3621C86.5574 43.3621 88.6382 45.4427 88.6382 48.0002C88.6382 50.5576 86.5574 52.6382 84 52.6382C81.4424 52.6382 79.3618 50.5576 79.3618 48.0002ZM88.4348 41.8341C88.5833 41.6851 88.7898 41.6 89 41.6C89.2109 41.6 89.4175 41.6851 89.5657 41.8341C89.7148 41.9825 89.8 42.1891 89.8 42.4C89.8 42.6101 89.7148 42.8167 89.5657 42.9658C89.4167 43.1141 89.2109 43.2 89 43.2C88.9355 43.2 88.8716 43.1919 88.8096 43.1765C88.6687 43.1416 88.5378 43.0687 88.4348 42.9658C88.2859 42.8167 88.2 42.6102 88.2 42.4C88.2 42.1891 88.2856 41.9825 88.4348 41.8341Z" fill="white"/>
<mask id="mask1" mask-type="alpha" maskUnits="userSpaceOnUse" x="79" y="41" width="11" height="12">
<path fill-rule="evenodd" clip-rule="evenodd" d="M88.4349 41.8342C88.5833 41.6851 88.7898 41.6 89 41.6C89.2109 41.6 89.4175 41.6851 89.5658 41.8342C89.7149 41.9825 89.8 42.1891 89.8 42.4C89.8 42.6102 89.7149 42.8167 89.5658 42.9658C89.4167 43.1142 89.2109 43.2 89 43.2C88.7898 43.2 88.5833 43.1142 88.4349 42.9658C88.2858 42.8167 88.2 42.6102 88.2 42.4C88.2 42.1891 88.2857 41.9825 88.4349 41.8342ZM84 43.362C81.4424 43.362 79.3618 45.4427 79.3618 48.0002C79.3618 50.5576 81.4424 52.6381 84 52.6381C86.5575 52.6381 88.6381 50.5576 88.6381 48.0002C88.6381 45.4427 86.5575 43.362 84 43.362ZM84 51.8397C81.8827 51.8397 80.16 50.1173 80.16 48C80.16 45.8826 81.8826 44.16 84 44.16C86.1175 44.16 87.84 45.8826 87.84 48C87.84 50.1173 86.1173 51.8397 84 51.8397Z" fill="white"/>
</mask>
<g mask="url(#mask1)">
</g>
<path fill-rule="evenodd" clip-rule="evenodd" d="M56.5303 42.0949C56.6526 42.0636 56.8052 42.0949 56.897 42.1886C56.9885 42.2824 57.0191 42.4386 56.9885 42.5636C56.7136 43.4698 56.1636 44.126 55.4915 44.4698V44.5634C55.4915 50.5942 51.0921 55.5 45.7149 55.5C42.6902 55.5 40.2461 54.9688 39.1463 54.0627C39.0239 53.9377 38.9629 53.7814 39.0239 53.5939C39.085 53.4377 39.2378 53.3127 39.4212 53.3127C41.2236 53.2814 42.3848 52.844 43.2708 52.3128C41.5598 52.094 40.4905 51.2504 39.9404 49.6568C39.8794 49.5005 39.9404 49.3443 40.0628 49.2505C40.1848 49.1568 40.3682 49.1568 40.4905 49.2193C40.9487 49.5318 41.407 49.5943 41.957 49.5943C40.7959 48.8757 39.7266 47.6882 39.2988 46.2195C39.2769 46.1069 39.3025 45.978 39.3643 45.8914C39.3882 45.858 39.4175 45.8309 39.4517 45.8134C39.6045 45.7196 39.7571 45.7509 39.8794 45.8446C40.2156 46.1258 40.582 46.3133 41.1321 46.407C39.9404 45.1571 39.2073 43.3135 40.2461 41.2825L40.4295 40.9075L40.7349 41.22C42.6292 43.251 44.3706 44.1885 47.5479 44.8134V44.6884C47.5479 42.4074 49.2893 40.5325 51.4585 40.5013C52.314 40.5013 53.5056 41.1263 53.9944 41.4075C54.0249 41.4075 54.0554 41.4388 54.0554 41.4075C54.6665 41.22 55.3999 40.9075 56.2551 40.5325C56.3775 40.47 56.5303 40.5013 56.6218 40.595C56.7136 40.6888 56.7442 40.8138 56.6831 40.97C56.5303 41.4075 56.2859 41.8763 55.9192 42.3136L56.5303 42.0949ZM54.7356 44.2378L54.9133 44.1774C55.4766 43.9662 55.8025 43.5135 56.01 43.1213L54.8543 43.5136C54.7061 43.5739 54.5281 43.5136 54.4688 43.3627C54.4094 43.2117 54.4392 43.0307 54.5579 42.9401C55.032 42.5478 55.3877 42.1253 55.6543 41.6727C55.0615 41.914 54.5281 42.1253 54.0835 42.2762C53.9705 42.3145 53.8574 42.3163 53.7444 42.2894C53.6797 42.2738 53.6148 42.2488 53.5501 42.2159C53.2239 42.0347 52.0977 41.4009 51.416 41.4312C49.6375 41.4613 48.2149 43.0005 48.2149 44.8716V45.7166L47.8591 45.6563C44.5986 45.0527 42.7905 44.1774 40.8936 42.2762C40.0044 44.5697 41.8421 46.1694 42.4646 46.622L43.2056 47.1652H42.2866C41.6939 47.1652 41.0418 47.1049 40.449 46.8333C41.1011 48.2215 42.4348 49.2476 43.5613 49.5796L43.4724 50.1832C43.2351 50.1832 42.9981 50.1832 42.761 50.2133C42.1384 50.2436 41.5755 50.2436 41.0418 50.0624C41.6348 51.2093 42.6721 51.6922 44.3616 51.6922H45.2507L44.5098 52.2354C43.5908 52.9596 42.4053 53.6236 40.3601 53.7746C41.3381 54.2574 43.1463 54.7101 45.8435 54.7101C50.4649 54.7101 54.7356 49.9991 54.7356 44.7509V44.2378Z" fill="white"/>
<mask id="mask2" mask-type="alpha" maskUnits="userSpaceOnUse" x="39" y="40" width="18" height="16">
<path fill-rule="evenodd" clip-rule="evenodd" d="M56.5303 42.0949C56.6526 42.0636 56.8052 42.0949 56.897 42.1886C56.9885 42.2824 57.0191 42.4386 56.9885 42.5636C56.7136 43.4698 56.1636 44.126 55.4915 44.4698V44.5634C55.4915 50.5942 51.0921 55.5 45.7149 55.5C42.6902 55.5 40.2461 54.9688 39.1463 54.0627C39.0239 53.9377 38.9629 53.7814 39.0239 53.5939C39.085 53.4377 39.2378 53.3127 39.4212 53.3127C41.2236 53.2814 42.3848 52.844 43.2708 52.3128C41.5598 52.094 40.4905 51.2504 39.9404 49.6568C39.8794 49.5005 39.9404 49.3443 40.0628 49.2505C40.1848 49.1568 40.3682 49.1568 40.4905 49.2193C40.9487 49.5318 41.407 49.5943 41.957 49.5943C40.7959 48.8757 39.7266 47.6882 39.2988 46.2195C39.2769 46.1069 39.3025 45.978 39.3643 45.8914C39.3882 45.858 39.4175 45.8309 39.4517 45.8134C39.6045 45.7196 39.7571 45.7509 39.8794 45.8446C40.2156 46.1258 40.582 46.3133 41.1321 46.407C39.9404 45.1571 39.2073 43.3135 40.2461 41.2825L40.4295 40.9075L40.7349 41.22C42.6292 43.251 44.3706 44.1885 47.5479 44.8134V44.6884C47.5479 42.4074 49.2893 40.5325 51.4585 40.5013C52.314 40.5013 53.5056 41.1263 53.9944 41.4075C54.0249 41.4075 54.0554 41.4388 54.0554 41.4075C54.6665 41.22 55.3999 40.9075 56.2551 40.5325C56.3775 40.47 56.5303 40.5013 56.6218 40.595C56.7136 40.6888 56.7442 40.8138 56.6831 40.97C56.5303 41.4075 56.2859 41.8763 55.9192 42.3136L56.5303 42.0949ZM54.7356 44.2378L54.9133 44.1774C55.4766 43.9662 55.8025 43.5135 56.01 43.1213L54.8543 43.5136C54.7061 43.5739 54.5281 43.5136 54.4688 43.3627C54.4094 43.2117 54.4392 43.0307 54.5579 42.9401C55.032 42.5478 55.3877 42.1253 55.6543 41.6727C55.0615 41.914 54.5281 42.1253 54.0835 42.2762C53.9705 42.3145 53.8574 42.3163 53.7444 42.2894C53.6797 42.2738 53.6148 42.2488 53.5501 42.2159C53.2239 42.0347 52.0977 41.4009 51.416 41.4312C49.6375 41.4613 48.2149 43.0005 48.2149 44.8716V45.7166L47.8591 45.6563C44.5986 45.0527 42.7905 44.1774 40.8936 42.2762C40.0044 44.5697 41.8421 46.1694 42.4646 46.622L43.2056 47.1652H42.2866C41.6939 47.1652 41.0418 47.1049 40.449 46.8333C41.1011 48.2215 42.4348 49.2476 43.5613 49.5796L43.4724 50.1832C43.2351 50.1832 42.9981 50.1832 42.761 50.2133C42.1384 50.2436 41.5755 50.2436 41.0418 50.0624C41.6348 51.2093 42.6721 51.6922 44.3616 51.6922H45.2507L44.5098 52.2354C43.5908 52.9596 42.4053 53.6236 40.3601 53.7746C41.3381 54.2574 43.1463 54.7101 45.8435 54.7101C50.4649 54.7101 54.7356 49.9991 54.7356 44.7509V44.2378Z" fill="white"/>
</mask>
<g mask="url(#mask2)">
</g>
<path d="M20.3281 3.625V11.3594C20.3229 12.4323 19.9844 13.3099 19.3125 13.9922C18.6458 14.6745 17.7396 15.0573 16.5938 15.1406L16.1953 15.1562C14.9505 15.1562 13.9583 14.8203 13.2188 14.1484C12.4792 13.4766 12.1042 12.5521 12.0938 11.375V3.625H13.5781V11.3281C13.5781 12.151 13.8047 12.7917 14.2578 13.25C14.7109 13.7031 15.3568 13.9297 16.1953 13.9297C17.0443 13.9297 17.6927 13.7031 18.1406 13.25C18.5938 12.7969 18.8203 12.1589 18.8203 11.3359V3.625H20.3281ZM29.625 10.8672C29.625 12.1589 29.3281 13.1979 28.7344 13.9844C28.1406 14.7656 27.3438 15.1562 26.3438 15.1562C25.276 15.1562 24.4505 14.7786 23.8672 14.0234L23.7969 15H22.4688V3H23.9141V7.47656C24.4974 6.7526 25.3021 6.39062 26.3281 6.39062C27.3542 6.39062 28.1589 6.77865 28.7422 7.55469C29.3307 8.33073 29.625 9.39323 29.625 10.7422V10.8672ZM28.1797 10.7031C28.1797 9.71875 27.9896 8.95833 27.6094 8.42188C27.2292 7.88542 26.6823 7.61719 25.9688 7.61719C25.0156 7.61719 24.3307 8.0599 23.9141 8.94531V12.6016C24.3568 13.487 25.0469 13.9297 25.9844 13.9297C26.6771 13.9297 27.2161 13.6615 27.6016 13.125C27.987 12.5885 28.1797 11.7812 28.1797 10.7031ZM34.9609 15.1562C33.8151 15.1562 32.8828 14.7812 32.1641 14.0312C31.4453 13.276 31.0859 12.2682 31.0859 11.0078V10.7422C31.0859 9.90365 31.2448 9.15625 31.5625 8.5C31.8854 7.83854 32.3333 7.32292 32.9062 6.95312C33.4844 6.57812 34.1094 6.39062 34.7812 6.39062C35.8802 6.39062 36.7344 6.7526 37.3438 7.47656C37.9531 8.20052 38.2578 9.23698 38.2578 10.5859V11.1875H32.5312C32.5521 12.0208 32.7943 12.6953 33.2578 13.2109C33.7266 13.7214 34.3203 13.9766 35.0391 13.9766C35.5495 13.9766 35.9818 13.8724 36.3359 13.6641C36.6901 13.4557 37 13.1797 37.2656 12.8359L38.1484 13.5234C37.4401 14.612 36.3776 15.1562 34.9609 15.1562ZM34.7812 7.57812C34.1979 7.57812 33.7083 7.79167 33.3125 8.21875C32.9167 8.64062 32.6719 9.23438 32.5781 10H36.8125V9.89062C36.7708 9.15625 36.5729 8.58854 36.2188 8.1875C35.8646 7.78125 35.3854 7.57812 34.7812 7.57812ZM44.0234 7.84375C43.8047 7.80729 43.5677 7.78906 43.3125 7.78906C42.3646 7.78906 41.7214 8.19271 41.3828 9V15H39.9375V6.54688H41.3438L41.3672 7.52344C41.8411 6.76823 42.513 6.39062 43.3828 6.39062C43.6641 6.39062 43.8776 6.42708 44.0234 6.5V7.84375ZM52.0156 9.74219H47.0859V13.7734H52.8125V15H45.5859V3.625H52.7344V4.85938H47.0859V8.51562H52.0156V9.74219ZM59.6719 15C59.5885 14.8333 59.5208 14.5365 59.4688 14.1094C58.7969 14.8073 57.9948 15.1562 57.0625 15.1562C56.2292 15.1562 55.5443 14.9219 55.0078 14.4531C54.4766 13.9792 54.2109 13.3802 54.2109 12.6562C54.2109 11.776 54.5443 11.0938 55.2109 10.6094C55.8828 10.1198 56.8255 9.875 58.0391 9.875H59.4453V9.21094C59.4453 8.70573 59.2943 8.30469 58.9922 8.00781C58.6901 7.70573 58.2448 7.55469 57.6562 7.55469C57.1406 7.55469 56.7083 7.6849 56.3594 7.94531C56.0104 8.20573 55.8359 8.52083 55.8359 8.89062H54.3828C54.3828 8.46875 54.5312 8.0625 54.8281 7.67188C55.1302 7.27604 55.5365 6.96354 56.0469 6.73438C56.5625 6.50521 57.1276 6.39062 57.7422 6.39062C58.7161 6.39062 59.4792 6.63542 60.0312 7.125C60.5833 7.60938 60.8698 8.27865 60.8906 9.13281V13.0234C60.8906 13.7995 60.9896 14.4167 61.1875 14.875V15H59.6719ZM57.2734 13.8984C57.7266 13.8984 58.1562 13.7812 58.5625 13.5469C58.9688 13.3125 59.263 13.0078 59.4453 12.6328V10.8984H58.3125C56.5417 10.8984 55.6562 11.4167 55.6562 12.4531C55.6562 12.9062 55.8073 13.2604 56.1094 13.5156C56.4115 13.7708 56.7995 13.8984 57.2734 13.8984ZM65.1172 4.5V6.54688H66.6953V7.66406H65.1172V12.9062C65.1172 13.2448 65.1875 13.5 65.3281 13.6719C65.4688 13.8385 65.7083 13.9219 66.0469 13.9219C66.2135 13.9219 66.4427 13.8906 66.7344 13.8281V15C66.3542 15.1042 65.9844 15.1562 65.625 15.1562C64.9792 15.1562 64.4922 14.9609 64.1641 14.5703C63.8359 14.1797 63.6719 13.625 63.6719 12.9062V7.66406H62.1328V6.54688H63.6719V4.5H65.1172ZM73.3125 12.7578C73.3125 12.3672 73.1641 12.0651 72.8672 11.8516C72.5755 11.6328 72.0625 11.4453 71.3281 11.2891C70.599 11.1328 70.0182 10.9453 69.5859 10.7266C69.1589 10.5078 68.8411 10.2474 68.6328 9.94531C68.4297 9.64323 68.3281 9.28385 68.3281 8.86719C68.3281 8.17448 68.6198 7.58854 69.2031 7.10938C69.7917 6.63021 70.5417 6.39062 71.4531 6.39062C72.4115 6.39062 73.1875 6.63802 73.7812 7.13281C74.3802 7.6276 74.6797 8.26042 74.6797 9.03125H73.2266C73.2266 8.63542 73.0573 8.29427 72.7188 8.00781C72.3854 7.72135 71.9635 7.57812 71.4531 7.57812C70.9271 7.57812 70.5156 7.69271 70.2188 7.92188C69.9219 8.15104 69.7734 8.45052 69.7734 8.82031C69.7734 9.16927 69.9115 9.43229 70.1875 9.60938C70.4635 9.78646 70.9609 9.95573 71.6797 10.1172C72.4036 10.2786 72.9896 10.4714 73.4375 10.6953C73.8854 10.9193 74.2161 11.1901 74.4297 11.5078C74.6484 11.8203 74.7578 12.2031 74.7578 12.6562C74.7578 13.4115 74.4557 14.0182 73.8516 14.4766C73.2474 14.9297 72.4635 15.1562 71.5 15.1562C70.8229 15.1562 70.224 15.0365 69.7031 14.7969C69.1823 14.5573 68.7734 14.224 68.4766 13.7969C68.1849 13.3646 68.0391 12.8984 68.0391 12.3984H69.4844C69.5104 12.8828 69.7031 13.2682 70.0625 13.5547C70.4271 13.8359 70.9062 13.9766 71.5 13.9766C72.0469 13.9766 72.4844 13.8672 72.8125 13.6484C73.1458 13.4245 73.3125 13.1276 73.3125 12.7578Z" fill="white"/>
<path d="M5.97656 11.7969H3.91406L3.28906 15H2.17188L2.79688 11.7969H0.929688V10.7266H3L3.53906 7.96094H1.52344V6.875H3.75L4.39062 3.625H5.50781L4.86719 6.875H6.92969L7.57031 3.625H8.69531L8.05469 6.875H9.64844V7.96094H7.84375L7.30469 10.7266H9.0625V11.7969H7.10156L6.47656 15H5.35156L5.97656 11.7969ZM4.11719 10.7266H6.17969L6.71875 7.96094H4.65625L4.11719 10.7266Z" fill="#49A144"/>
</svg>
